<?xml version="1.0" standalone="no"?><!-- Generator: Gravit.io --><svg xmlns="http://www.w3.org/2000/svg" xmlns:xlink="http://www.w3.org/1999/xlink" style="isolation:isolate" viewBox="0 0 56 56" width="56" height="56"><defs><clipPath id="_clipPath_76FFPUK0ZXLkvjxr5rBdaToyhWt13YZI"><rect width="56" height="56"/></clipPath></defs><g clip-path="url(#_clipPath_76FFPUK0ZXLkvjxr5rBdaToyhWt13YZI)"><g><path d=" M 56 13.997 C 56 6.272 50.146 0 42.961 0 L 13.039 0 C 5.842 0 0 6.284 0 13.997 L 0 41.991 C 0 49.728 5.842 56 13.039 56 L 42.961 56 C 50.158 56 56 49.716 56 41.991 L 56 13.997 Z " fill-rule="evenodd" fill="rgb(123,32,202)"/><clipPath id="_clipPath_gUF6SRsaE3X4C1OccfgJlrqE0xOEtuqf"><path d=" M 56 13.997 C 56 6.272 50.146 0 42.961 0 L 13.039 0 C 5.842 0 0 6.284 0 13.997 L 0 41.991 C 0 49.728 5.842 56 13.039 56 L 42.961 56 C 50.158 56 56 49.716 56 41.991 L 56 13.997 Z " fill-rule="evenodd" fill="rgb(255,255,255)"/></clipPath><g clip-path="url(#_clipPath_gUF6SRsaE3X4C1OccfgJlrqE0xOEtuqf)"><g><path d=" M 57.044 12.21 C 57.044 4.485 51.202 -1.787 44.006 -1.787 L 14.083 -1.787 C 6.887 -1.787 1.044 4.497 1.044 12.21 L 1.044 40.217 C 1.044 47.942 6.887 54.213 14.083 54.213 L 44.006 54.213 C 51.202 54.213 57.044 47.93 57.044 40.204 L 57.044 12.21 Z " fill-rule="evenodd" fill="rgb(162,86,228)"/><path d=" M 56 13.997 C 56 6.272 50.146 0 42.961 0 L 13.039 0 C 5.842 0 0 6.284 0 13.997 L 0 41.991 C 0 49.728 5.842 56 13.039 56 L 42.961 56 C 50.158 56 56 49.716 56 41.991 L 56 13.997 Z " fill-rule="evenodd" fill="rgb(123,32,202)"/><clipPath id="_clipPath_dFAsUiiU2df6zfWvTWsRv03NBXnHlqZq"><path d=" M 56 13.997 C 56 6.272 50.146 0 42.961 0 L 13.039 0 C 5.842 0 0 6.284 0 13.997 L 0 41.991 C 0 49.728 5.842 56 13.039 56 L 42.961 56 C 50.158 56 56 49.716 56 41.991 L 56 13.997 Z " fill-rule="evenodd" fill="rgb(255,255,255)"/></clipPath><g clip-path="url(#_clipPath_dFAsUiiU2df6zfWvTWsRv03NBXnHlqZq)"><g><path d=" M 57.044 12.21 C 57.044 4.485 51.202 -1.787 44.006 -1.787 L 14.083 -1.787 C 6.887 -1.787 1.044 4.497 1.044 12.21 L 1.044 40.217 C 1.044 47.942 6.887 54.213 14.083 54.213 L 44.006 54.213 C 51.202 54.213 57.044 47.93 57.044 40.204 L 57.044 12.21 Z  M 118.187 12.21 C 118.187 4.485 112.344 -1.787 105.148 -1.787 L 75.225 -1.787 C 68.029 -1.787 62.187 4.497 62.187 12.21 L 62.187 40.217 C 62.187 47.942 68.04 54.213 75.225 54.213 L 105.148 54.213 C 112.344 54.213 118.187 47.93 118.187 40.204 L 118.187 12.21 L 118.187 12.21 Z " fill-rule="evenodd" fill="rgb(162,86,228)"/></g></g><path d=" M 118.187 12.21 C 118.187 4.485 112.344 -1.787 105.148 -1.787 L 75.225 -1.787 C 68.029 -1.787 62.187 4.497 62.187 12.21 L 62.187 40.217 C 62.187 47.942 68.04 54.213 75.225 54.213 L 105.148 54.213 C 112.344 54.213 118.187 47.93 118.187 40.204 L 118.187 12.21 L 118.187 12.21 Z " fill-rule="evenodd" fill="rgb(162,86,228)"/></g></g><path d=" M 17.481 11.57 L 17.882 12.149 L 17.768 12.876 L 17.228 13.295 L 12.66 14.453 L 11.983 14.33 L 11.593 13.75 L 11.707 13.024 L 12.247 12.605 L 16.815 11.446 L 17.481 11.57 Z  M 39.426 11.446 L 43.994 12.605 L 44.545 13.024 L 44.66 13.738 L 44.258 14.33 L 43.593 14.453 L 39.024 13.295 L 38.473 12.876 L 38.359 12.161 L 38.76 11.57 C 38.99 11.533 39.22 11.397 39.426 11.446 Z  M 15.174 21.291 L 15.438 21.291 L 15.725 21.34 C 15.946 21.376 16.165 21.429 16.379 21.501 C 17.135 21.779 17.825 22.233 18.399 22.831 C 19.035 23.503 19.535 24.308 19.868 25.197 L 19.948 25.419 L 20.109 25.887 L 20.109 25.899 L 20.098 25.998 L 20.006 25.973 L 19.834 25.739 L 19.65 25.53 C 19.319 25.153 18.962 24.803 18.582 24.482 L 18.341 24.297 C 17.871 23.951 17.362 23.669 16.826 23.46 L 16.689 23.423 C 16.467 23.347 16.241 23.29 16.011 23.25 L 15.885 23.25 L 15.725 23.213 L 15.518 23.213 L 15.403 23.189 L 14.68 23.189 L 14.519 23.201 C 14.334 23.212 14.15 23.237 13.968 23.275 L 13.831 23.312 C 13.588 23.365 13.35 23.439 13.119 23.534 L 13.004 23.583 C 12.848 23.653 12.694 23.731 12.545 23.817 L 12.43 23.879 C 11.874 24.189 11.376 24.607 10.961 25.111 C 10.765 25.342 10.584 25.589 10.422 25.85 L 10.33 25.887 L 10.296 25.801 C 10.382 25.391 10.505 24.99 10.663 24.606 L 10.72 24.458 C 10.976 23.891 11.309 23.368 11.707 22.905 L 11.857 22.757 C 12.002 22.605 12.155 22.461 12.316 22.326 L 12.43 22.228 C 12.717 22.018 13.004 21.858 13.314 21.698 L 13.406 21.661 L 13.555 21.599 C 13.788 21.509 14.025 21.435 14.267 21.377 L 14.542 21.328 L 14.749 21.303 L 15.059 21.291 L 15.174 21.291 Z  M 41.986 21.291 L 42.296 21.291 L 42.502 21.328 L 42.778 21.377 C 43.025 21.426 43.267 21.5 43.501 21.599 L 43.638 21.661 C 43.673 21.661 43.707 21.685 43.73 21.698 C 44.04 21.846 44.327 22.03 44.603 22.228 L 44.775 22.363 C 44.935 22.498 45.088 22.642 45.234 22.794 L 45.349 22.917 C 45.739 23.373 46.072 23.891 46.324 24.458 L 46.393 24.606 C 46.548 24.985 46.663 25.382 46.737 25.788 L 46.749 25.801 L 46.714 25.899 L 46.634 25.862 C 46.456 25.592 46.265 25.333 46.06 25.086 L 45.831 24.84 C 45.472 24.461 45.067 24.137 44.626 23.879 L 44.511 23.817 C 44.363 23.728 44.209 23.65 44.052 23.583 L 43.937 23.534 C 43.705 23.441 43.467 23.367 43.225 23.312 C 43.168 23.312 43.122 23.287 43.076 23.275 C 42.894 23.236 42.71 23.212 42.525 23.201 L 42.364 23.189 L 41.664 23.189 L 41.549 23.201 L 41.343 23.213 L 41.171 23.238 L 41.044 23.262 C 40.811 23.294 40.581 23.348 40.356 23.423 L 40.195 23.484 C 39.963 23.564 39.736 23.663 39.518 23.78 L 39.38 23.866 L 39.036 24.063 L 38.726 24.297 C 38.284 24.623 37.876 24.999 37.509 25.419 L 37.36 25.591 L 37.062 25.961 L 36.958 25.998 L 36.947 25.899 L 37.085 25.48 L 37.199 25.197 C 37.497 24.479 37.883 23.808 38.347 23.201 C 38.701 22.776 39.102 22.4 39.541 22.08 L 39.747 21.944 C 40.242 21.651 40.777 21.443 41.331 21.328 C 41.495 21.303 41.66 21.291 41.825 21.291 L 41.986 21.291 Z " fill="rgb(46,13,25)"/><g><ellipse vector-effect="non-scaling-stroke" cx="48.56241032998562" cy="30.987898789879" rx="4.373027259684363" ry="3.0187018701870194" fill="rgb(230,85,110)"/><ellipse vector-effect="non-scaling-stroke" cx="7.426111908177822" cy="30.987898789879" rx="4.37302725968436" ry="3.0187018701870194" fill="rgb(230,85,110)"/></g><path d=" M 36.717 30.261 C 36.8 31.447 36.607 32.637 36.155 33.723 C 35.611 35.078 34.739 36.253 33.63 37.124 C 32.498 38.024 31.192 38.639 29.808 38.923 L 29.567 38.972 C 28.772 39.091 27.967 39.111 27.168 39.034 L 26.824 38.984 C 26.239 38.879 25.663 38.722 25.102 38.516 C 24.531 38.293 23.982 38.013 23.461 37.678 C 22.583 37.1 21.809 36.358 21.176 35.485 C 20.613 34.686 20.189 33.785 19.925 32.824 C 19.718 32.01 19.64 31.164 19.696 30.323 L 19.696 30.261 L 19.925 30.015 L 20.166 30.261 C 20.216 30.771 20.312 31.274 20.453 31.764 C 20.755 32.792 21.278 33.729 21.98 34.499 C 22.798 35.42 23.804 36.124 24.918 36.557 L 25.194 36.668 C 25.918 36.945 26.676 37.111 27.443 37.161 C 28.68 37.258 29.924 37.12 31.116 36.754 C 32.223 36.373 33.244 35.748 34.112 34.918 C 34.78 34.244 35.325 33.442 35.719 32.553 C 36.006 31.85 36.189 31.086 36.247 30.323 L 36.247 30.261 L 36.488 30.015 L 36.717 30.261 Z " fill="rgb(46,13,25)"/></g></g></svg>