<?xml version="1.0" standalone="no"?><!-- Generator: Gravit.io --><svg xmlns="http://www.w3.org/2000/svg" xmlns:xlink="http://www.w3.org/1999/xlink" style="isolation:isolate" viewBox="0 0 56 56" width="56" height="56"><defs><clipPath id="_clipPath_AUy6WDtwR0jsvG2bskldPuK5xoPXHxmH"><rect width="56" height="56"/></clipPath></defs><g clip-path="url(#_clipPath_AUy6WDtwR0jsvG2bskldPuK5xoPXHxmH)"><g><path d=" M 56 13.997 C 56 6.272 50.146 0 42.961 0 L 13.039 0 C 5.842 0 0 6.284 0 13.997 L 0 41.991 C 0 49.728 5.842 56 13.039 56 L 42.961 56 C 50.158 56 56 49.716 56 41.991 L 56 13.997 Z " fill-rule="evenodd" fill="rgb(123,32,202)"/><clipPath id="_clipPath_AWkcfUvVq0YKc2mwKqUtBWCqQorXyLaO"><path d=" M 56 13.997 C 56 6.272 50.146 0 42.961 0 L 13.039 0 C 5.842 0 0 6.284 0 13.997 L 0 41.991 C 0 49.728 5.842 56 13.039 56 L 42.961 56 C 50.158 56 56 49.716 56 41.991 L 56 13.997 Z " fill-rule="evenodd" fill="rgb(255,255,255)"/></clipPath><g clip-path="url(#_clipPath_AWkcfUvVq0YKc2mwKqUtBWCqQorXyLaO)"><g><path d=" M 57.056 12.21 C 57.056 4.485 51.202 -1.787 44.006 -1.787 L 14.083 -1.787 C 6.887 -1.787 1.044 4.497 1.044 12.21 L 1.044 40.204 C 1.044 47.942 6.887 54.213 14.083 54.213 L 44.006 54.213 C 51.202 54.213 57.044 47.93 57.044 40.204 L 57.044 12.21 L 57.056 12.21 Z " fill-rule="evenodd" fill="rgb(162,86,228)"/></g></g><radialGradient id="_rgradient_0" fx="0.5000000000000004" fy="0.5" cx="0.5000000000000004" cy="0.5" r="1" gradientTransform="matrix(6.956,0,0,7.467,10.651,20.416)" gradientUnits="userSpaceOnUse"><stop offset="0%" stop-opacity="1" style="stop-color:rgb(29,29,29)"/><stop offset="100%" stop-opacity="1" style="stop-color:rgb(0,0,0)"/></radialGradient><ellipse vector-effect="non-scaling-stroke" cx="14.129124820659975" cy="24.149614961496148" rx="3.4777618364418927" ry="3.7333333333333343" fill="url(#_rgradient_0)"/><clipPath id="_clipPath_r6QUBskogXtmFQG3jpzkVfX1WmNQdZOL"><ellipse vector-effect="non-scaling-stroke" cx="14.129124820659975" cy="24.149614961496148" rx="3.4777618364418927" ry="3.7333333333333343" fill="rgb(255,255,255)"/></clipPath><g clip-path="url(#_clipPath_r6QUBskogXtmFQG3jpzkVfX1WmNQdZOL)"><g><ellipse vector-effect="non-scaling-stroke" cx="12.62553802008609" cy="26.121012101210134" rx="1.5035868005738884" ry="1.614081408140816" fill="rgb(255,255,255)"/><ellipse vector-effect="non-scaling-stroke" cx="13.876614060258255" cy="23.521232123212307" rx="0.7575322812051652" ry="0.8132013201320127" fill="rgb(255,255,255)"/></g></g><radialGradient id="_rgradient_1" fx="0.5" fy="0.5" cx="0.5" cy="0.5" r="1" gradientTransform="matrix(6.956,0,0,7.467,38.382,20.416)" gradientUnits="userSpaceOnUse"><stop offset="0%" stop-opacity="1" style="stop-color:rgb(29,29,29)"/><stop offset="100%" stop-opacity="1" style="stop-color:rgb(0,0,0)"/></radialGradient><ellipse vector-effect="non-scaling-stroke" cx="41.85939741750361" cy="24.149614961496148" rx="3.4777618364418927" ry="3.7333333333333343" fill="url(#_rgradient_1)"/><clipPath id="_clipPath_ZYVwtWnjCW8eWirID4FTkEesMzhj3gmt"><ellipse vector-effect="non-scaling-stroke" cx="41.85939741750361" cy="24.149614961496148" rx="3.4777618364418927" ry="3.7333333333333343" fill="rgb(255,255,255)"/></clipPath><g clip-path="url(#_clipPath_ZYVwtWnjCW8eWirID4FTkEesMzhj3gmt)"><g><ellipse vector-effect="non-scaling-stroke" cx="40.344332855093235" cy="26.121012101210134" rx="1.5035868005738848" ry="1.614081408140816" fill="rgb(255,255,255)"/><ellipse vector-effect="non-scaling-stroke" cx="41.60688665710186" cy="23.521232123212307" rx="0.7575322812051652" ry="0.8132013201320127" fill="rgb(255,255,255)"/></g></g><path d=" M 16.907 12.691 L 17.297 13.282 L 17.171 13.997 L 16.62 14.404 L 12.029 15.463 L 11.363 15.328 L 10.973 14.736 L 11.099 14.022 L 11.65 13.603 L 16.241 12.555 L 16.907 12.679 L 16.907 12.691 Z  M 39.702 13.073 L 44.293 14.132 L 44.844 14.551 L 44.958 15.254 L 44.58 15.857 L 43.914 15.981 L 39.323 14.933 L 38.772 14.527 L 38.657 13.812 L 39.036 13.208 C 39.265 13.171 39.484 13.024 39.702 13.085 L 39.702 13.073 Z " fill="rgb(46,13,25)"/><path d=" M 17.446 29.275 C 17.446 36.89 22.175 43.075 28.006 43.075 C 33.825 43.075 38.542 36.89 38.542 29.275 L 17.435 29.275 L 17.446 29.275 Z " fill-rule="evenodd" fill="rgb(46,13,25)"/><clipPath id="_clipPath_jzh6YIbmJYhpKOKrEpybE0jR2nwHCZ6b"><path d=" M 17.446 29.275 C 17.446 36.89 22.175 43.075 28.006 43.075 C 33.825 43.075 38.542 36.89 38.542 29.275 L 17.435 29.275 L 17.446 29.275 Z " fill-rule="evenodd" fill="rgb(255,255,255)"/></clipPath><g clip-path="url(#_clipPath_jzh6YIbmJYhpKOKrEpybE0jR2nwHCZ6b)"><g><path d=" M 28.017 34.29 C 32.367 34.29 35.891 37.173 35.879 40.709 C 35.879 44.246 32.333 47.116 27.983 47.104 C 23.621 47.092 20.098 44.209 20.109 40.672 C 20.109 37.136 23.667 34.265 28.006 34.29 L 28.017 34.29 Z " fill-rule="evenodd" fill="rgb(241,74,103)"/></g></g><path d=" M 38.542 28.893 L 38.657 28.906 C 38.772 28.943 38.852 29.041 38.887 29.152 L 38.898 29.275 C 38.898 30.488 38.783 31.698 38.554 32.885 C 38.087 35.275 37.087 37.508 35.638 39.391 C 34.949 40.261 34.153 41.027 33.274 41.67 C 32.163 42.47 30.914 43.023 29.601 43.297 C 27.712 43.66 25.764 43.376 24.034 42.484 C 22.895 41.899 21.862 41.102 20.981 40.13 C 19.891 38.935 19.03 37.518 18.399 36.003 C 17.541 33.94 17.096 31.707 17.09 29.448 L 17.09 29.361 C 17.09 29.288 17.09 29.226 17.113 29.152 C 17.147 29.034 17.233 28.941 17.343 28.906 L 17.446 28.893 L 38.542 28.893 Z  M 27.994 29.657 L 17.802 29.657 C 17.848 31.752 18.261 33.846 19.065 35.756 C 19.664 37.202 20.5 38.521 21.532 39.65 C 22.362 40.549 23.333 41.283 24.402 41.818 C 26.625 42.918 29.18 42.949 31.426 41.905 C 32.442 41.432 33.371 40.768 34.169 39.945 C 36.053 37.961 37.34 35.416 37.865 32.639 C 38.06 31.678 38.164 30.692 38.187 29.706 L 38.187 29.657 L 27.994 29.657 Z " fill="rgb(46,13,25)"/></g></g></svg>