<?xml version="1.0" standalone="no"?><!-- Generator: Gravit.io --><svg xmlns="http://www.w3.org/2000/svg" xmlns:xlink="http://www.w3.org/1999/xlink" style="isolation:isolate" viewBox="0 0 56 56" width="56" height="56"><defs><clipPath id="_clipPath_g96PQ21EjG63KsrxJzjkOV0D1p0exaUz"><rect width="56" height="56"/></clipPath></defs><g clip-path="url(#_clipPath_g96PQ21EjG63KsrxJzjkOV0D1p0exaUz)"><g><path d=" M 56 13.997 C 56 6.284 50.148 0 42.941 0 L 13.036 0 C 5.852 0 0 6.284 0 13.997 L 0 41.991 C 0 49.728 5.852 56 13.036 56 L 42.952 56 C 50.148 56 55.989 49.716 55.989 41.991 L 55.989 13.997 L 56 13.997 Z " fill-rule="evenodd" fill="rgb(123,32,202)"/><clipPath id="_clipPath_wXqFfAc467WsidIryzGZcWliq1I2wxF8"><path d=" M 56 13.997 C 56 6.284 50.148 0 42.941 0 L 13.036 0 C 5.852 0 0 6.284 0 13.997 L 0 41.991 C 0 49.728 5.852 56 13.036 56 L 42.952 56 C 50.148 56 55.989 49.716 55.989 41.991 L 55.989 13.997 L 56 13.997 Z " fill-rule="evenodd" fill="rgb(255,255,255)"/></clipPath><g clip-path="url(#_clipPath_wXqFfAc467WsidIryzGZcWliq1I2wxF8)"><g><path d=" M 57.033 12.21 C 57.033 4.485 51.203 -1.787 44.008 -1.787 L 14.08 -1.787 C 6.885 -1.787 1.044 4.497 1.044 12.21 L 1.044 40.204 C 1.044 47.942 6.897 54.213 14.08 54.213 L 44.008 54.213 C 51.203 54.213 57.044 47.93 57.044 40.204 L 57.044 12.21 L 57.033 12.21 Z " fill-rule="evenodd" fill="rgb(162,86,228)"/><path d=" M 56 13.997 C 56 6.284 50.148 0 42.941 0 L 13.036 0 C 5.852 0 0 6.284 0 13.997 L 0 41.991 C 0 49.728 5.852 56 13.036 56 L 42.952 56 C 50.148 56 55.989 49.716 55.989 41.991 L 55.989 13.997 L 56 13.997 Z " fill-rule="evenodd" fill="rgb(123,32,202)"/><clipPath id="_clipPath_ykZTNlETwQYrUnzzmgfaWfckG9vM7tN3"><path d=" M 56 13.997 C 56 6.284 50.148 0 42.941 0 L 13.036 0 C 5.852 0 0 6.284 0 13.997 L 0 41.991 C 0 49.728 5.852 56 13.036 56 L 42.952 56 C 50.148 56 55.989 49.716 55.989 41.991 L 55.989 13.997 L 56 13.997 Z " fill-rule="evenodd" fill="rgb(255,255,255)"/></clipPath><g clip-path="url(#_clipPath_ykZTNlETwQYrUnzzmgfaWfckG9vM7tN3)"><g><path d=" M 57.033 12.21 C 57.033 4.485 51.203 -1.787 44.008 -1.787 L 14.08 -1.787 C 6.885 -1.787 1.044 4.497 1.044 12.21 L 1.044 40.204 C 1.044 47.942 6.897 54.213 14.08 54.213 L 44.008 54.213 C 51.203 54.213 57.044 47.93 57.044 40.204 L 57.044 12.21 L 57.033 12.21 Z  M 118.174 12.21 C 118.174 4.485 112.321 -1.787 105.138 -1.787 L 75.221 -1.787 C 68.015 -1.787 62.174 4.497 62.174 12.21 L 62.174 40.204 C 62.174 47.942 68.026 54.213 75.21 54.213 L 105.138 54.213 C 112.333 54.213 118.174 47.93 118.174 40.204 L 118.174 12.21 Z " fill-rule="evenodd" fill="rgb(162,86,228)"/></g></g><path d=" M 118.174 12.21 C 118.174 4.485 112.321 -1.787 105.138 -1.787 L 75.221 -1.787 C 68.015 -1.787 62.174 4.497 62.174 12.21 L 62.174 40.204 C 62.174 47.942 68.026 54.213 75.21 54.213 L 105.138 54.213 C 112.333 54.213 118.174 47.93 118.174 40.204 L 118.174 12.21 Z " fill-rule="evenodd" fill="rgb(162,86,228)"/></g></g><radialGradient id="_rgradient_0" fx="0.5000000000000004" fy="0.5" cx="0.5000000000000004" cy="0.5" r="1" gradientTransform="matrix(6.954,0,0,7.467,10.569,21.168)" gradientUnits="userSpaceOnUse"><stop offset="0%" stop-opacity="1" style="stop-color:rgb(29,29,29)"/><stop offset="100%" stop-opacity="1" style="stop-color:rgb(0,0,0)"/></radialGradient><ellipse vector-effect="non-scaling-stroke" cx="14.045901639344269" cy="24.901210121012127" rx="3.4770491803278674" ry="3.7333333333333343" fill="url(#_rgradient_0)"/><clipPath id="_clipPath_MgKB4FuPR6rgR7yJz7zRLIhTxTRCV6tx"><ellipse vector-effect="non-scaling-stroke" cx="14.045901639344269" cy="24.901210121012127" rx="3.4770491803278674" ry="3.7333333333333343" fill="rgb(255,255,255)"/></clipPath><g clip-path="url(#_clipPath_MgKB4FuPR6rgR7yJz7zRLIhTxTRCV6tx)"><g><ellipse vector-effect="non-scaling-stroke" cx="12.53114754098361" cy="26.872607260726085" rx="1.5032786885245901" ry="1.614081408140816" fill="rgb(255,255,255)"/><ellipse vector-effect="non-scaling-stroke" cx="13.78196721311476" cy="24.272827282728286" rx="0.7573770491803273" ry="0.8132013201320127" fill="rgb(255,255,255)"/></g></g><path d=" M 41.07 22.363 L 41.38 22.363 C 41.641 22.392 41.898 22.445 42.149 22.523 L 42.287 22.56 C 42.585 22.671 42.861 22.807 43.148 22.954 L 43.262 23.041 C 43.477 23.183 43.684 23.34 43.882 23.509 C 44.284 23.879 44.639 24.334 44.915 24.827 C 44.984 24.926 45.03 25.037 45.087 25.135 C 45.213 25.406 45.316 25.69 45.42 25.973 L 45.42 25.998 L 45.431 26.022 L 45.408 26.109 L 45.328 26.084 L 45.202 25.949 C 45.057 25.788 44.903 25.635 44.743 25.493 L 44.467 25.259 C 44.101 24.967 43.7 24.731 43.274 24.556 L 43.159 24.519 C 43.016 24.462 42.871 24.412 42.723 24.371 L 42.608 24.347 C 42.393 24.288 42.175 24.247 41.954 24.224 L 41.828 24.224 L 41.564 24.211 L 41.334 24.211 L 41.185 24.224 L 41.025 24.248 L 40.91 24.248 L 40.738 24.285 L 40.554 24.31 L 40.439 24.334 L 40.267 24.371 L 40.13 24.408 L 40.015 24.433 C 39.809 24.482 39.608 24.557 39.418 24.655 L 39.269 24.716 C 39.068 24.811 38.876 24.927 38.695 25.061 L 38.569 25.148 C 38.466 25.209 38.374 25.283 38.282 25.369 L 38.007 25.604 C 37.632 25.945 37.293 26.329 36.997 26.749 L 36.882 26.91 L 36.641 27.279 L 36.641 27.292 L 36.549 27.328 L 36.515 27.242 C 36.72 26.085 37.176 24.996 37.846 24.063 C 38.034 23.826 38.241 23.607 38.466 23.41 L 38.638 23.262 C 39.059 22.942 39.523 22.693 40.015 22.523 L 40.198 22.462 L 40.485 22.4 L 40.634 22.388 C 40.779 22.373 40.925 22.364 41.07 22.363 L 41.07 22.363 Z " fill="rgb(0,0,0)"/><path d=" M 35.539 31.813 C 35.757 32.51 35.881 33.236 35.907 33.97 C 35.935 35.599 35.38 37.177 34.357 38.381 C 33.735 39.151 32.989 39.793 32.154 40.278 C 31.566 40.647 30.938 40.936 30.284 41.141 L 30.169 41.19 C 29.813 41.301 29.453 41.395 29.09 41.473 L 28.746 41.547 C 27.949 41.677 27.142 41.731 26.336 41.707 C 25.353 41.658 24.384 41.437 23.467 41.054 C 22.646 40.669 21.905 40.112 21.287 39.416 C 20.859 38.909 20.51 38.33 20.254 37.703 L 20.231 37.666 L 20.3 37.395 L 20.541 37.469 C 20.579 37.527 20.617 37.584 20.656 37.641 L 20.77 37.814 C 21.657 39.01 22.94 39.792 24.351 39.995 C 25.033 40.119 25.728 40.144 26.416 40.069 L 27.07 39.995 L 27.518 39.921 C 27.888 39.855 28.256 39.773 28.62 39.674 L 29.044 39.551 L 29.389 39.453 L 29.664 39.366 L 29.951 39.28 L 30.284 39.157 L 30.651 39.021 L 30.949 38.898 L 31.156 38.8 C 31.771 38.526 32.357 38.179 32.9 37.765 C 33.565 37.235 34.129 36.574 34.564 35.818 C 35.008 34.994 35.246 34.06 35.252 33.107 C 35.262 32.72 35.242 32.333 35.195 31.949 L 35.195 31.912 L 35.321 31.666 L 35.539 31.813 Z  M 17.075 15.771 L 17.339 16.437 L 17.339 16.449 L 17.075 17.114 L 16.456 17.398 L 11.762 17.398 L 11.143 17.114 L 10.879 16.449 L 11.143 15.771 L 11.762 15.5 L 16.467 15.5 L 17.075 15.783 L 17.075 15.771 Z  M 40.795 14.293 L 41.254 14.798 L 41.254 15.537 L 40.772 16.03 L 36.411 17.915 L 35.746 17.915 L 35.275 17.385 L 35.275 16.658 L 35.757 16.153 L 40.118 14.268 L 40.795 14.28 L 40.795 14.293 Z " fill="rgb(46,13,25)"/></g></g></svg>