<?xml version="1.0" standalone="no"?><!-- Generator: Gravit.io --><svg xmlns="http://www.w3.org/2000/svg" xmlns:xlink="http://www.w3.org/1999/xlink" style="isolation:isolate" viewBox="0 0 90.709 90.709" width="90.709" height="90.709"><defs><clipPath id="_clipPath_76D8VResfnwMCJkzL62QlB7vuva8t8xS"><rect width="90.709" height="90.709"/></clipPath></defs><g clip-path="url(#_clipPath_76D8VResfnwMCJkzL62QlB7vuva8t8xS)"><path d=" M 14.922 0 C 12.396 0.007 9.836 0.664 7.484 2.039 C 2.564 4.913 -0.128 10.153 0.005 15.503 C -0.06 18.189 0.584 20.93 2.014 23.437 L 31.898 75.808 C 34.766 80.834 40.016 83.561 45.356 83.37 C 50.694 83.56 55.943 80.833 58.81 75.808 L 88.694 23.437 C 90.125 20.93 90.769 18.189 90.704 15.503 C 90.837 10.153 88.145 4.913 83.225 2.039 C 80.873 0.664 78.312 0.007 75.787 0 C 70.617 -0.014 65.595 2.699 62.814 7.572 L 45.354 38.171 L 27.894 7.572 C 25.114 2.699 20.092 -0.014 14.922 0 L 14.922 0 Z  M 0.084 26.4 L 0.454 75.705 C 0.517 84.08 7.231 90.772 15.509 90.708 C 22.649 90.653 28.551 85.59 29.997 78.824 L 0.084 26.4 Z  M 90.625 26.4 L 60.711 78.824 C 62.158 85.59 68.059 90.653 75.2 90.708 C 83.477 90.772 90.192 84.08 90.255 75.705 L 90.625 26.4 Z " fill="rgb(255,255,255)"/></g></svg>