<?xml version="1.0" standalone="no"?><!-- Generator: Gravit.io --><svg xmlns="http://www.w3.org/2000/svg" xmlns:xlink="http://www.w3.org/1999/xlink" style="isolation:isolate" viewBox="0 0 85 85" width="85" height="85"><defs><clipPath id="_clipPath_tMtcrZpGr7dHlVwLk0ahdFF7R1LAN3J5"><rect width="85" height="85"/></clipPath></defs><g clip-path="url(#_clipPath_tMtcrZpGr7dHlVwLk0ahdFF7R1LAN3J5)"><g><path d=" M 85 21.278 C 85 9.536 76.132 0 65.209 0 L 19.791 0 C 8.868 0 0 9.536 0 21.259 L 0 63.759 C 0 75.483 8.868 85 19.791 85 L 65.209 85 C 76.132 85 85 75.464 85 63.759 L 85 21.259 L 85 21.278 Z " fill-rule="evenodd" fill="rgb(123,32,202)"/><clipPath id="_clipPath_MfqI9JYvAEiuLgp8sSmoeLrQCxFz5iek"><path d=" M 85 21.278 C 85 9.536 76.132 0 65.209 0 L 19.791 0 C 8.868 0 0 9.536 0 21.259 L 0 63.759 C 0 75.483 8.868 85 19.791 85 L 65.209 85 C 76.132 85 85 75.464 85 63.759 L 85 21.259 L 85 21.278 Z " fill-rule="evenodd" fill="rgb(255,255,255)"/></clipPath><g clip-path="url(#_clipPath_MfqI9JYvAEiuLgp8sSmoeLrQCxFz5iek)"><g><path d=" M 86.585 18.567 C 86.585 6.825 77.718 -2.692 66.794 -2.692 L 21.376 -2.692 C 10.453 -2.692 1.585 6.843 1.585 18.567 L 1.585 61.048 C 1.585 72.772 10.47 82.27 21.376 82.27 L 66.794 82.27 C 77.718 82.27 86.585 72.734 86.585 61.029 L 86.585 18.567 Z " fill-rule="evenodd" fill="rgb(162,86,228)"/></g></g><radialGradient id="_rgradient_0" fx="0.5000000000000004" fy="0.5" cx="0.5000000000000004" cy="0.5" r="1" gradientTransform="matrix(10.557,0,0,11.331,16.185,33.824)" gradientUnits="userSpaceOnUse"><stop offset="0%" stop-opacity="1" style="stop-color:rgb(29,29,29)"/><stop offset="100%" stop-opacity="1" style="stop-color:rgb(0,0,0)"/></radialGradient><ellipse vector-effect="non-scaling-stroke" cx="21.463414634146268" cy="39.48966124065114" rx="5.278745644599304" ry="5.665420149582047" fill="url(#_rgradient_0)"/><clipPath id="_clipPath_O7se5UsJsLEfL2a9pNw07WrsIcTGqY1A"><ellipse vector-effect="non-scaling-stroke" cx="21.463414634146268" cy="39.48966124065114" rx="5.278745644599304" ry="5.665420149582047" fill="rgb(255,255,255)"/></clipPath><g clip-path="url(#_clipPath_O7se5UsJsLEfL2a9pNw07WrsIcTGqY1A)"><g><ellipse vector-effect="non-scaling-stroke" cx="19.16376306620203" cy="42.48130224373073" rx="2.2822299651567945" ry="2.449406071271447" fill="rgb(255,255,255)"/><ellipse vector-effect="non-scaling-stroke" cx="21.0627177700348" cy="38.51737791465026" rx="1.1498257839721262" ry="1.2340519137703438" fill="rgb(255,255,255)"/></g></g><radialGradient id="_rgradient_1" fx="0.5" fy="0.5" cx="0.5" cy="0.5" r="1" gradientTransform="matrix(10.557,0,0,11.331,58.258,33.824)" gradientUnits="userSpaceOnUse"><stop offset="0%" stop-opacity="1" style="stop-color:rgb(29,29,29)"/><stop offset="100%" stop-opacity="1" style="stop-color:rgb(0,0,0)"/></radialGradient><ellipse vector-effect="non-scaling-stroke" cx="63.536585365853576" cy="39.48966124065114" rx="5.278745644599304" ry="5.665420149582047" fill="url(#_rgradient_1)"/><clipPath id="_clipPath_st5rToZsP0Rg8ws7lTLkTZcbDXeEEtxF"><ellipse vector-effect="non-scaling-stroke" cx="63.536585365853576" cy="39.48966124065114" rx="5.278745644599304" ry="5.665420149582047" fill="rgb(255,255,255)"/></clipPath><g clip-path="url(#_clipPath_st5rToZsP0Rg8ws7lTLkTZcbDXeEEtxF)"><g><ellipse vector-effect="non-scaling-stroke" cx="61.23693379790934" cy="42.48130224373073" rx="2.2822299651567945" ry="2.449406071271447" fill="rgb(255,255,255)"/><ellipse vector-effect="non-scaling-stroke" cx="63.153310104529545" cy="38.51737791465026" rx="1.1498257839721262" ry="1.2340519137703438" fill="rgb(255,255,255)"/></g></g><path d=" M 42.509 47.492 L 43.066 47.492 C 43.554 47.53 44.059 47.586 44.547 47.679 C 44.686 47.679 44.808 47.717 44.93 47.754 C 45.881 47.96 46.814 48.254 47.718 48.633 C 48.783 49.109 49.79 49.724 50.714 50.465 L 51.098 50.783 C 52.038 51.627 52.87 52.602 53.571 53.681 C 54.391 55.003 54.964 56.482 55.261 58.038 C 55.436 58.973 55.488 59.926 55.436 60.88 L 55.07 61.254 L 54.721 60.88 L 54.686 60.506 C 54.397 57.686 53.059 55.11 50.976 53.363 C 49.777 52.298 48.39 51.503 46.899 51.026 C 46.026 50.731 45.127 50.536 44.216 50.447 L 43.676 50.39 L 42.979 50.353 L 42.352 50.353 C 41.075 50.401 39.807 50.601 38.571 50.951 L 37.787 51.213 L 37.509 51.344 C 35.371 52.202 33.504 53.693 32.125 55.645 C 31.107 57.164 30.476 58.943 30.296 60.805 L 30.296 60.88 L 29.948 61.254 L 29.582 60.88 C 29.358 57.976 30.195 55.093 31.916 52.84 L 32.23 52.429 C 34.018 50.178 36.429 48.599 39.111 47.922 C 39.53 47.81 39.983 47.735 40.418 47.642 L 40.941 47.567 C 41.185 47.548 41.446 47.511 41.707 47.511 L 41.969 47.511 L 42.491 47.492 L 42.509 47.492 Z  M 25.923 24.494 L 25.923 24.513 L 25.958 25.616 L 25.261 26.42 L 18.763 29.524 L 17.718 29.561 L 16.986 28.813 L 16.986 28.795 L 16.951 27.691 L 17.648 26.906 L 24.164 23.784 L 25.192 23.746 L 25.923 24.494 Z  M 60.523 23.784 L 67.038 26.887 L 67.735 27.691 L 67.718 28.776 L 67.718 28.795 L 66.969 29.542 L 65.941 29.524 L 59.443 26.42 L 58.746 25.616 L 58.746 24.513 L 59.495 23.765 L 60.523 23.765 L 60.523 23.784 Z " fill="rgb(46,13,25)"/></g></g></svg>